<?xml version="1.0" standalone="no"?>
<!DOCTYPE svg PUBLIC "-//W3C//DTD SVG 20010904//EN"
 "http://www.w3.org/TR/2001/REC-SVG-20010904/DTD/svg10.dtd">
<svg version="1.0" xmlns="http://www.w3.org/2000/svg"
 width="500.000000pt" height="500.000000pt" viewBox="0 0 500.000000 500.000000"
 preserveAspectRatio="xMidYMid meet">
<metadata>
Created by potrace 1.14, written by Peter Selinger 2001-2017
</metadata>
<g transform="translate(0.000000,500.000000) scale(0.100000,-0.100000)"
fill="#000000" stroke="none">
<path d="M2260 4869 c-25 -4 -81 -13 -125 -18 -92 -12 -107 -16 -235 -65 -117
-46 -261 -116 -276 -135 -6 -7 -31 -15 -55 -17 -25 -2 -54 -7 -64 -11 -33 -13
-164 -93 -170 -103 -10 -16 21 -11 35 5 7 8 20 15 29 15 12 -1 9 -6 -11 -23
-38 -31 -122 -82 -130 -80 -9 3 -105 -93 -167 -167 -26 -31 -55 -78 -65 -105
-10 -28 -37 -90 -61 -140 -25 -49 -57 -130 -74 -180 -16 -49 -43 -121 -61
-160 -44 -95 -55 -150 -59 -281 -3 -106 10 -194 28 -194 5 0 12 -15 15 -33 3
-19 14 -42 24 -53 30 -32 53 -110 68 -229 3 -27 12 -75 19 -105 7 -30 16 -77
20 -105 4 -27 13 -65 20 -85 7 -19 18 -53 24 -76 6 -23 22 -53 36 -68 31 -34
32 -50 2 -42 -12 4 -44 9 -72 13 -68 8 -49 -8 45 -37 120 -36 204 -110 267
-236 20 -41 41 -74 45 -74 5 0 7 24 6 54 -2 30 -6 52 -11 49 -4 -3 -6 14 -4
36 2 23 0 44 -4 47 -5 2 -1 13 8 24 9 10 21 16 26 13 6 -3 3 -11 -6 -18 -21
-15 -21 -21 -3 -28 10 -4 13 -1 9 9 -3 8 -2 14 3 13 5 -1 15 -1 23 0 12 1 12
3 -1 14 -19 15 -30 55 -17 63 5 3 9 10 9 15 0 6 -4 8 -9 4 -12 -7 -54 52 -47
64 8 12 -4 42 -14 36 -5 -3 -6 5 -2 17 3 14 1 19 -6 14 -8 -5 -10 -2 -6 8 3 8
-2 38 -11 65 -9 27 -17 60 -18 73 0 13 -6 26 -12 30 -6 5 -1 25 16 58 15 27
23 47 18 44 -15 -9 -10 13 6 26 8 7 15 25 15 41 0 15 5 31 11 34 6 4 8 13 5
20 -2 7 0 17 6 23 6 6 19 35 29 64 23 64 57 94 147 125 37 13 72 29 77 37 23
30 178 126 195 121 10 -3 25 1 33 10 9 8 25 15 36 15 12 0 21 5 21 10 0 6 14
19 32 30 24 15 34 16 40 7 5 -8 8 -7 8 5 0 11 6 15 20 11 11 -3 27 0 35 7 9 7
18 11 20 8 3 -3 -19 -26 -50 -52 -30 -26 -55 -51 -55 -55 0 -7 36 2 220 61
161 51 170 51 419 13 19 -3 39 -9 45 -14 16 -13 156 -13 212 -1 27 6 89 14
139 17 49 3 100 9 112 14 26 10 31 -2 8 -21 -24 -20 -18 -38 11 -32 15 3 29
14 35 29 8 23 35 41 45 31 3 -3 -1 -17 -7 -32 -14 -29 -4 -49 12 -26 8 11 9 8
6 -13 -4 -24 -1 -28 13 -24 22 6 85 -65 116 -130 17 -35 20 -52 13 -70 -10
-26 -4 -47 12 -38 5 4 9 15 9 26 0 17 3 18 20 7 11 -7 20 -16 20 -20 0 -11
-31 -39 -38 -34 -4 2 -7 -10 -7 -27 0 -20 -5 -31 -12 -29 -17 3 -16 -2 6 -48
20 -41 18 -50 -8 -50 -13 0 -13 2 -3 9 11 7 11 9 -1 14 -18 7 -17 -12 4 -44
27 -43 29 -59 10 -78 -38 -38 -162 -28 -239 20 -16 10 -23 10 -35 0 -8 -6 -32
-11 -54 -10 -38 2 -78 -8 -165 -42 -26 -11 -53 -19 -60 -19 -18 0 -125 -54
-149 -75 -11 -11 -19 -31 -19 -50 0 -27 4 -34 25 -37 14 -3 25 -1 25 3 0 5 12
9 28 9 15 0 37 6 48 14 11 8 49 20 85 26 35 6 106 22 158 36 100 26 141 30
141 14 0 -6 9 -6 24 0 13 5 27 6 30 2 4 -3 28 -9 54 -12 35 -4 49 -10 58 -27
6 -13 13 -20 16 -17 3 3 5 -3 4 -12 0 -11 7 -20 19 -22 46 -9 59 -61 21 -82
-22 -11 -31 -10 -75 14 -54 28 -211 59 -232 45 -14 -8 2 -13 80 -24 62 -8 106
-32 91 -50 -9 -11 -19 -11 -63 2 -29 8 -86 15 -128 16 -64 0 -86 -5 -140 -31
-57 -27 -159 -113 -159 -134 0 -19 30 -6 50 22 23 33 64 64 98 74 20 7 22 4
22 -29 0 -79 80 -132 154 -101 33 14 86 77 86 103 0 18 13 16 43 -7 14 -11 30
-20 36 -20 14 0 14 -11 1 -44 -5 -14 -14 -26 -20 -26 -6 0 -29 -9 -51 -19 -22
-11 -53 -23 -69 -26 -17 -4 -30 -11 -30 -16 0 -16 32 -23 51 -11 10 7 29 12
41 13 13 0 52 10 88 22 60 21 66 25 80 64 17 46 50 83 74 83 8 0 23 10 33 22
10 13 27 25 38 27 26 4 58 21 52 27 -7 7 38 54 51 54 6 0 15 12 20 28 8 24 9
22 8 -20 -1 -27 -4 -41 -9 -35 -6 8 -7 5 -3 -6 3 -10 6 -23 6 -29 0 -6 7 -8
15 -5 8 4 17 2 20 -2 3 -5 -2 -11 -10 -15 -8 -3 -15 -15 -15 -27 0 -25 30 -79
45 -79 5 0 -1 -9 -15 -20 -14 -11 -20 -20 -14 -20 19 0 23 -112 5 -118 -6 -2
-11 -26 -11 -53 0 -31 -4 -48 -10 -44 -5 3 -10 -3 -10 -13 0 -11 -7 -25 -15
-32 -10 -8 -12 -17 -7 -22 5 -5 6 -27 1 -51 -4 -23 -8 -68 -9 -99 0 -32 -4
-58 -9 -58 -15 0 -25 -81 -11 -90 8 -5 5 -9 -8 -13 -16 -3 -21 -15 -24 -43 -2
-23 -8 -38 -15 -37 -6 1 -10 -5 -8 -15 1 -9 -3 -25 -10 -35 -7 -10 -10 -28 -7
-39 4 -16 1 -19 -14 -14 -16 5 -20 1 -22 -21 -1 -15 -8 -36 -16 -48 -16 -24
-13 -100 5 -122 9 -10 8 -13 0 -13 -7 0 -10 -4 -6 -9 3 -5 1 -12 -5 -16 -6 -4
-8 -10 -6 -13 5 -9 -11 -101 -23 -127 -31 -69 -51 -132 -51 -161 0 -18 -5 -45
-12 -61 -6 -15 -12 -35 -13 -43 -2 -23 -17 -74 -24 -80 -13 -10 -41 -60 -41
-72 0 -8 -13 -39 -30 -71 -16 -31 -26 -57 -22 -57 4 0 -1 -5 -10 -10 -9 -6
-19 -24 -23 -40 -4 -16 -11 -32 -16 -35 -5 -4 -9 -17 -9 -31 0 -13 -4 -24 -10
-24 -5 0 -24 -16 -42 -36 -64 -71 -113 -114 -135 -120 -13 -3 -23 -10 -23 -15
0 -5 -10 -9 -22 -9 -13 0 -43 -12 -67 -25 -24 -14 -58 -27 -74 -29 -29 -3 -52
-26 -27 -26 7 0 2 -11 -11 -24 -14 -15 -26 -20 -30 -14 -4 7 -9 7 -13 -1 -4
-6 -2 -11 4 -11 6 0 8 -4 5 -10 -4 -6 4 -9 17 -7 15 1 23 -3 23 -13 0 -8 -6
-14 -12 -13 -7 2 -13 -6 -13 -18 0 -11 -4 -17 -10 -14 -14 9 -12 -8 3 -24 10
-11 10 -13 0 -7 -9 5 -13 0 -13 -12 0 -11 -7 -23 -16 -26 -12 -4 -14 -1 -9 13
5 16 0 20 -27 23 -28 3 -33 7 -35 33 -1 16 5 41 14 55 l16 25 -21 -19 c-22
-19 -22 -19 -22 4 0 19 -3 21 -12 12 -9 -9 -9 -15 0 -24 19 -19 14 -35 -10
-41 -20 -5 -20 -4 -7 6 14 8 15 15 6 34 -13 29 -27 30 -27 2 0 -13 4 -18 12
-13 6 4 8 3 4 -4 -3 -6 -15 -9 -25 -7 -15 3 -18 -1 -14 -18 3 -12 13 -28 21
-34 9 -8 11 -13 4 -13 -6 0 -9 -8 -6 -17 4 -11 2 -14 -3 -8 -4 6 -37 33 -72
60 -117 92 -131 106 -131 132 0 18 -4 24 -15 19 -20 -7 -70 67 -61 91 4 10 4
14 0 10 -5 -4 -20 23 -35 60 -25 62 -26 69 -11 81 14 11 14 12 -2 12 -12 0
-16 5 -12 15 3 9 0 15 -9 15 -17 0 -19 11 -5 28 6 6 7 10 4 7 -9 -6 -64 64
-64 82 0 8 -4 11 -10 8 -9 -6 -14 8 -11 28 1 4 -10 12 -24 17 -14 5 -30 21
-37 35 -9 20 -14 23 -25 13 -22 -18 -37 -53 -78 -178 -20 -63 -42 -126 -48
-139 -7 -15 -46 -40 -107 -71 -53 -26 -159 -87 -236 -137 -139 -89 -207 -126
-339 -182 l-70 -30 198 -1 c130 0 196 3 192 10 -3 6 -1 10 4 10 6 0 11 -4 11
-10 0 -6 52 -10 136 -10 114 0 139 3 149 16 10 15 13 15 27 0 14 -13 40 -16
143 -16 l127 0 -5 83 c-3 45 -12 107 -21 137 -9 30 -21 94 -27 143 -9 75 -8
95 6 140 10 28 21 56 26 61 10 11 27 -53 33 -124 2 -32 13 -71 26 -93 22 -37
22 -37 1 -37 -17 0 -13 -11 35 -78 30 -42 93 -112 140 -155 l84 -77 71 0 c53
0 68 3 63 13 -6 9 -5 9 7 0 17 -13 139 -16 139 -3 0 9 23 35 133 151 95 100
170 149 225 149 31 0 70 40 143 145 18 27 48 69 66 92 51 69 185 289 248 408
61 115 133 235 142 235 8 0 -7 -60 -38 -150 -16 -47 -46 -143 -68 -215 -21
-71 -60 -184 -85 -250 -53 -136 -81 -223 -74 -230 5 -5 112 -35 124 -35 3 0 3
4 0 8 -3 5 -31 14 -62 21 -41 9 -53 16 -45 24 8 8 24 6 58 -6 47 -17 82 -22
71 -12 -3 3 -34 14 -69 24 -44 12 -57 19 -43 23 11 3 47 -3 80 -13 32 -10 68
-18 79 -18 24 1 21 2 -73 29 -57 17 -71 24 -63 34 6 7 8 16 4 19 -3 4 7 7 23
7 22 0 25 3 14 10 -30 19 2 22 55 5 31 -9 59 -15 62 -11 3 3 0 8 -8 11 -8 2
-32 12 -54 20 l-40 15 42 -3 c47 -3 47 2 0 20 -30 12 -28 13 28 8 41 -3 54 -2
40 4 -11 5 -30 10 -42 10 -13 1 -23 6 -23 12 0 6 6 9 14 6 34 -13 89 -19 83
-10 -4 6 -22 14 -42 17 -36 7 -58 26 -30 26 9 0 13 5 9 11 -5 8 6 10 35 7 22
-2 41 0 41 4 0 5 -11 8 -24 8 -14 0 -27 4 -30 9 -8 12 20 22 41 14 11 -4 14
-3 9 5 -4 7 -14 12 -23 12 -12 0 -13 3 -4 14 9 11 9 15 -1 19 -7 3 -3 6 10 6
12 1 22 6 22 11 0 6 10 10 23 10 l22 0 -25 20 -25 20 25 0 c14 1 34 6 45 11
19 9 18 9 -2 5 -17 -3 -23 1 -23 15 0 10 5 19 12 19 6 0 3 6 -8 14 -19 14 -19
14 1 13 13 -1 19 3 17 14 -1 9 4 19 13 23 8 3 15 12 15 21 0 8 5 15 11 15 6 0
8 7 5 16 -5 13 -2 15 14 11 13 -3 20 0 20 9 0 16 34 36 45 26 4 -4 4 3 1 16
-5 14 -3 22 4 22 6 0 8 -4 5 -10 -3 -5 1 -10 9 -10 9 0 17 -4 17 -10 1 -5 3
-14 4 -20 1 -5 3 -17 4 -25 0 -8 7 -12 15 -9 8 3 17 1 21 -5 3 -6 0 -11 -7
-11 -8 0 -14 -9 -15 -20 -1 -11 3 -20 8 -20 6 0 7 5 3 12 -5 8 -2 9 9 5 10 -3
17 -2 17 2 0 5 9 7 20 4 11 -3 20 0 20 6 0 6 -5 11 -11 11 -8 0 -8 4 -1 13 6
6 13 29 17 50 4 20 11 37 15 37 4 0 10 7 14 15 3 8 2 14 -2 12 -4 -1 -8 3 -9
8 -1 6 5 9 13 7 8 -2 14 4 14 13 0 9 5 26 11 37 9 17 13 18 21 7 7 -10 11 -11
14 -2 3 7 12 9 20 6 7 -3 11 -9 8 -14 -8 -13 10 -11 25 4 19 18 53 -30 38 -54
-8 -13 -8 -21 1 -32 7 -8 9 -22 6 -32 -4 -10 -1 -21 7 -26 21 -13 29 -11 22 8
-5 13 -2 15 11 10 10 -4 20 -7 22 -7 9 0 3 -69 -7 -76 -7 -4 -9 -21 -6 -40 3
-19 3 -34 -1 -34 -4 0 -8 -19 -9 -42 -3 -88 -7 -128 -14 -128 -3 0 -4 -11 -1
-25 3 -16 0 -25 -8 -25 -10 0 -10 -3 0 -15 10 -12 9 -15 -6 -16 -11 0 -14 -3
-6 -6 13 -5 17 -63 4 -63 -5 0 -7 -14 -4 -31 3 -22 -1 -36 -17 -50 -24 -23
-29 -38 -6 -19 9 7 18 10 22 6 3 -3 1 -6 -6 -6 -7 0 -11 -7 -8 -14 5 -12 -4
-14 -50 -11 -66 5 -83 15 -27 16 41 1 39 3 -10 14 -22 5 -26 9 -16 15 8 5 19
6 25 2 5 -3 4 2 -4 11 -7 9 -10 17 -6 17 4 0 2 7 -5 15 -7 8 -9 15 -5 15 4 0
2 7 -5 15 -10 13 -9 15 9 15 22 0 26 7 13 27 -5 8 -30 12 -67 11 l-60 -1 50
-13 c28 -7 42 -13 31 -13 -12 -1 -16 -6 -12 -16 3 -9 0 -15 -10 -15 -10 0 -14
-6 -11 -14 4 -9 -1 -16 -11 -19 -14 -3 -12 -6 8 -15 24 -10 23 -11 -15 -12
l-40 -2 33 -10 c39 -13 42 -28 5 -29 l-28 -1 25 -7 c40 -11 9 -20 -40 -11 -25
5 -47 7 -49 4 -6 -5 48 -24 70 -24 11 0 18 -4 14 -9 -3 -6 -29 -7 -58 -4 -58
6 -58 -6 0 -18 35 -8 34 -8 -9 -4 -27 3 -60 8 -75 11 -54 13 -11 -11 50 -28
l62 -18 -70 5 -70 4 63 -16 c34 -9 62 -21 62 -26 0 -5 -12 -6 -26 -3 -37 10
-20 -11 19 -23 32 -10 32 -10 -10 -8 -23 0 -45 -2 -49 -6 -4 -4 2 -7 14 -7 11
0 24 -5 28 -12 5 -8 -5 -9 -34 -5 -24 3 -40 1 -36 -4 3 -5 20 -9 37 -9 18 0
39 -4 47 -10 12 -8 12 -10 -3 -16 -9 -3 -14 -11 -11 -16 5 -7 -16 -9 -62 -5
l-69 6 85 -18 c78 -17 81 -19 39 -20 -26 0 -70 4 -99 9 -64 12 -78 6 -21 -10
23 -6 39 -15 36 -20 -3 -5 -12 -7 -20 -3 -8 3 -15 0 -15 -6 0 -6 17 -11 38
-12 20 -1 48 -5 62 -9 15 -6 -8 -7 -60 -3 -47 2 -92 9 -102 14 -9 5 -26 9 -38
9 -13 0 -19 4 -14 11 6 11 51 8 87 -6 9 -4 17 -3 17 3 0 8 -83 28 -86 20 0 -2
-7 2 -15 8 -13 10 -154 56 -267 87 -28 8 -54 12 -57 8 -2 -5 42 -20 98 -36 56
-15 115 -34 130 -42 16 -8 31 -12 34 -9 3 3 15 0 27 -6 11 -7 25 -11 29 -10 5
1 6 -2 2 -7 -4 -7 -15 -7 -31 -1 -32 12 -51 13 -38 2 15 -14 138 -51 195 -58
66 -8 70 -9 91 -18 9 -4 50 -5 90 -2 104 8 105 8 188 0 l75 -6 -2 108 c-2 123
13 287 28 292 6 3 6 9 -1 17 -8 10 -8 19 0 35 6 12 10 27 7 33 -5 15 6 121 27
252 2 11 4 33 5 49 1 28 2 29 44 22 50 -7 57 -9 120 -27 26 -7 47 -17 47 -21
0 -4 7 -5 15 -2 8 4 15 2 15 -3 0 -5 24 -15 53 -23 28 -7 72 -23 97 -36 55
-29 98 -46 126 -50 12 -1 36 -10 52 -18 17 -9 36 -16 42 -16 7 0 25 -9 41 -21
16 -11 29 -17 29 -14 0 4 12 -3 26 -14 35 -27 54 -27 54 2 0 17 -20 35 -80 75
-44 29 -92 57 -107 62 -16 6 -37 14 -48 19 -11 5 -45 17 -75 27 -69 21 -240
92 -260 108 -8 6 -31 19 -50 28 -30 13 -103 68 -197 148 -13 10 -23 28 -23 40
0 26 -47 120 -60 120 -6 0 -10 6 -10 13 0 8 -30 42 -66 77 -37 36 -78 83 -92
105 -14 22 -41 56 -59 75 -19 19 -52 65 -73 101 -22 37 -54 79 -71 93 l-31 27
12 79 c7 44 16 80 20 80 4 0 13 -7 21 -16 51 -61 154 -57 227 10 27 24 56 75
48 84 -3 3 -6 0 -6 -6 0 -23 -61 -80 -105 -96 -49 -19 -105 -17 -133 5 -35 28
-41 38 -60 91 -16 46 -17 60 -7 98 15 54 38 223 36 265 -3 91 0 140 9 143 5 2
10 10 10 18 0 8 4 14 9 14 5 0 12 16 15 35 4 19 14 41 22 50 14 13 17 12 37
-10 23 -25 35 -28 105 -26 42 1 58 20 30 37 -6 4 -8 3 -4 -4 4 -6 -1 -10 -13
-9 -12 1 -17 6 -13 17 3 8 2 12 -3 8 -6 -6 -30 20 -80 89 -8 10 4 27 47 68 32
30 65 69 74 87 25 51 55 78 84 78 36 0 43 -9 25 -36 -8 -13 -13 -29 -10 -36 2
-7 7 -47 9 -88 4 -53 10 -78 21 -86 9 -7 12 -14 8 -17 -5 -3 -10 -25 -11 -49
-2 -24 -5 -50 -8 -60 -3 -9 0 -19 5 -22 11 -7 44 48 35 57 -3 3 0 16 7 29 13
24 15 35 25 136 5 51 9 62 22 57 13 -5 14 7 10 83 -3 53 -12 100 -22 120 -18
35 -36 42 -36 15 -1 -17 -1 -17 -11 0 -9 16 -13 15 -44 -9 -18 -14 -51 -49
-73 -77 -22 -29 -78 -92 -126 -142 -47 -49 -86 -93 -86 -97 0 -5 -7 -8 -16 -8
-13 0 -15 7 -9 42 4 24 14 60 21 82 8 21 14 46 14 56 0 10 13 32 29 48 19 21
25 34 18 41 -7 7 -6 19 3 36 9 17 14 58 14 113 0 84 -7 137 -41 339 -13 77
-13 101 -3 137 9 32 9 49 1 64 -6 11 -11 33 -11 49 0 37 -26 161 -46 221 -26
77 -180 380 -204 402 -3 3 -25 32 -50 65 -51 68 -178 194 -187 185 -3 -3 -3 1
1 8 11 19 -3 32 -27 23 -29 -10 -57 -3 -57 14 0 17 -42 95 -51 95 -4 0 -30 18
-58 40 -28 22 -56 40 -63 40 -7 0 -29 8 -48 19 -43 22 -199 72 -231 73 -13 0
-49 4 -79 9 -30 5 -85 11 -121 14 -37 3 -90 9 -118 14 -69 11 -185 11 -241 0z
m1125 -1849 c-3 -5 -11 -10 -16 -10 -6 0 -7 5 -4 10 3 6 11 10 16 10 6 0 7 -4
4 -10z m-28 -566 c-3 -3 -12 -4 -19 -1 -8 3 -5 6 6 6 11 1 17 -2 13 -5z m-372
-34 c3 -5 1 -10 -4 -10 -6 0 -11 5 -11 10 0 6 2 10 4 10 3 0 8 -4 11 -10z
m-60 -40 c-3 -5 -10 -10 -16 -10 -5 0 -9 5 -9 10 0 6 7 10 16 10 8 0 12 -4 9
-10z m965 -1324 c10 -13 10 -17 3 -12 -16 9 -17 -6 -1 -22 9 -9 9 -12 0 -12
-18 0 -14 -18 6 -23 13 -4 13 -5 -4 -6 -24 -1 -49 23 -40 38 4 5 2 12 -4 16
-5 3 -10 11 -10 16 0 6 4 8 9 5 5 -3 12 1 15 10 4 9 8 15 9 13 1 -2 9 -13 17
-23z m25 14 c3 -5 2 -10 -4 -10 -5 0 -13 5 -16 10 -3 6 -2 10 4 10 5 0 13 -4
16 -10z m-38 -102 c10 -17 13 -38 5 -38 -27 2 -48 50 -22 50 5 0 12 -6 17 -12z
m196 -615 c34 -5 38 -9 34 -29 -2 -13 0 -24 5 -24 8 0 2 -10 -29 -45 -10 -10
-10 -14 0 -18 14 -4 11 -150 -3 -155 -5 -2 -6 -10 -3 -18 3 -9 -2 -14 -16 -14
-12 0 -21 5 -21 11 0 5 5 7 10 4 6 -3 10 -2 10 4 0 5 -13 12 -29 16 -23 5 -28
10 -24 26 5 18 11 20 42 14 26 -4 32 -3 21 4 -8 6 -23 11 -32 11 -9 0 -20 5
-24 11 -5 9 1 10 20 5 15 -4 26 -2 26 4 0 5 -3 9 -7 9 -5 -1 -21 -1 -38 0 -29
2 -29 3 -7 12 13 5 35 6 48 3 15 -4 24 -2 24 5 0 6 -15 11 -34 11 -19 0 -38 4
-41 10 -3 5 0 7 9 4 8 -3 23 -1 33 5 16 9 16 10 -5 11 -13 0 -21 4 -17 9 3 6
-3 14 -12 20 -20 11 -12 14 37 12 24 0 24 0 -3 10 -17 7 -26 16 -23 24 3 8 0
16 -7 19 -7 3 3 4 21 3 18 -2 35 0 38 5 3 4 -5 9 -18 10 -42 2 -47 3 -54 11
-9 9 18 9 69 0z m-68 -113 c3 -5 1 -10 -4 -10 -6 0 -11 5 -11 10 0 6 2 10 4
10 3 0 8 -4 11 -10z m-205 -164 c0 -11 -19 -15 -25 -6 -3 5 1 10 9 10 9 0 16
-2 16 -4z m-1270 -26 c0 -5 -5 -10 -11 -10 -5 0 -7 5 -4 10 3 6 8 10 11 10 2
0 4 -4 4 -10z"/>
<path d="M4020 106 c0 -2 7 -6 15 -10 8 -3 15 -1 15 4 0 6 -7 10 -15 10 -8 0
-15 -2 -15 -4z"/>
<path d="M1289 4473 c-13 -16 -12 -17 4 -4 16 13 21 21 13 21 -2 0 -10 -8 -17
-17z"/>
<path d="M1555 2550 c-12 -4 -37 -27 -57 -51 -20 -24 -45 -55 -57 -68 -11 -13
-21 -28 -21 -33 0 -5 -5 -6 -11 -2 -6 3 -8 15 -6 26 6 20 -32 64 -44 51 -17
-19 -20 -71 -5 -86 8 -8 12 -17 9 -21 -3 -3 -1 -12 6 -20 6 -8 13 -31 15 -52
2 -22 4 -46 5 -54 1 -20 51 -25 51 -6 0 8 7 16 15 20 9 3 15 18 15 39 0 25 10
44 43 80 l42 47 80 5 c44 3 121 8 170 11 50 4 131 8 180 9 50 2 94 3 98 4 13
2 -4 44 -22 58 -30 23 -123 35 -272 35 -83 1 -152 5 -155 10 -6 10 -52 9 -79
-2z"/>
<path d="M2813 2527 c-60 -16 -81 -28 -127 -71 -44 -41 -54 -56 -50 -74 9 -31
16 -28 50 21 31 43 132 107 171 107 11 0 27 6 37 13 32 23 -3 25 -81 4z"/>
<path d="M1860 2371 c-21 -6 -14 -9 38 -20 35 -7 84 -21 110 -33 56 -24 82
-30 82 -19 0 14 -36 41 -53 41 -9 0 -17 4 -17 9 0 10 -88 32 -118 30 -9 -1
-28 -4 -42 -8z"/>
<path d="M866 2319 c-32 -25 -32 -35 0 -115 49 -122 163 -306 140 -224 -4 14
-10 34 -13 45 -3 11 -24 58 -46 105 -40 84 -51 145 -34 181 13 26 -18 31 -47
8z"/>
<path d="M1821 2299 c-52 -7 -81 -18 -155 -63 -90 -54 -114 -57 -100 -13 3 9
1 17 -4 17 -16 0 -23 -31 -11 -46 6 -7 8 -18 4 -24 -4 -6 -8 -21 -10 -33 -2
-12 -7 -33 -11 -46 -6 -21 -4 -23 14 -19 15 4 28 -3 48 -29 36 -46 65 -56 82
-32 14 20 7 42 -11 36 -6 -2 -19 5 -30 16 -25 25 -17 54 32 107 l39 43 21 -41
c40 -79 125 -96 188 -39 32 30 36 40 36 80 0 45 2 47 29 47 16 0 42 -7 58 -15
35 -18 39 -10 8 16 -39 34 -131 49 -227 38z m54 -48 c3 -5 1 -12 -5 -16 -5 -3
-10 1 -10 9 0 18 6 21 15 7z m-60 -41 c3 -5 -1 -10 -10 -10 -9 0 -13 5 -10 10
3 6 8 10 10 10 2 0 7 -4 10 -10z"/>
<path d="M4031 2205 c-39 -43 -51 -65 -33 -65 17 0 89 96 80 106 -3 2 -24 -16
-47 -41z"/>
<path d="M3818 2172 c-24 -14 -39 -42 -22 -42 14 0 45 22 54 40 13 24 4 25
-32 2z"/>
<path d="M1212 2138 c-6 -8 -13 -26 -16 -41 -4 -26 -2 -28 21 -25 33 4 52 32
37 55 -14 23 -29 26 -42 11z"/>
<path d="M1311 2054 c0 -11 3 -14 6 -6 3 7 2 16 -1 19 -3 4 -6 -2 -5 -13z"/>
<path d="M1710 2024 c-10 -11 -9 -14 8 -14 25 0 37 16 18 23 -8 3 -20 -1 -26
-9z"/>
<path d="M1793 2033 c-7 -2 -13 -11 -13 -18 0 -11 6 -11 30 -2 17 6 30 15 30
19 0 9 -28 9 -47 1z"/>
<path d="M1193 1854 c-6 -17 14 -63 37 -81 8 -7 30 -11 49 -11 26 1 39 -5 57
-28 17 -21 26 -26 35 -17 8 8 7 19 -5 41 -12 23 -20 28 -40 25 -20 -4 -32 2
-53 27 -54 65 -69 73 -80 44z"/>
<path d="M2780 1720 c-12 -7 -11 -12 5 -30 13 -15 22 -17 29 -10 8 8 6 14 -7
21 -9 6 -15 14 -12 20 8 11 4 11 -15 -1z"/>
<path d="M1520 1538 c0 -7 -3 -31 -6 -53 -5 -39 -5 -40 10 -15 18 29 21 66 6
75 -5 3 -10 0 -10 -7z"/>
<path d="M2674 1519 c-30 -9 -94 -61 -94 -77 0 -5 -11 -15 -25 -22 -33 -18
-32 -30 5 -30 19 0 40 10 58 28 34 33 59 45 64 31 5 -16 95 27 108 50 6 12 9
21 8 22 -23 6 -100 6 -124 -2z"/>
<path d="M2270 1450 c0 -5 6 -10 14 -10 8 0 18 5 21 10 3 6 -3 10 -14 10 -12
0 -21 -4 -21 -10z"/>
<path d="M3185 1403 c4 -10 9 -29 11 -42 3 -14 9 -32 14 -40 17 -28 12 37 -5
69 -17 32 -32 41 -20 13z"/>
<path d="M3093 1335 c-10 -11 -10 -16 2 -23 33 -18 -10 -53 -95 -77 -29 -8
-84 -31 -120 -50 -21 -11 -115 -35 -155 -41 -5 0 -17 -4 -25 -7 -44 -19 -96
-34 -107 -30 -6 2 -14 -1 -18 -7 -8 -13 25 -26 34 -13 3 6 33 13 67 17 74 8
89 -3 78 -59 l-7 -37 39 8 c22 4 51 7 66 7 15 0 30 7 35 18 9 20 210 179 227
179 43 1 77 72 53 111 -14 22 -57 24 -74 4z m-238 -232 c-32 -28 -59 -27 -63
4 -3 18 2 22 30 25 55 6 65 -2 33 -29z"/>
<path d="M1686 1203 c-7 -7 19 -33 33 -33 6 0 8 6 5 14 -6 16 -29 28 -38 19z"/>
<path d="M1715 1140 c-6 -9 12 -48 36 -80 9 -13 10 -12 5 3 -6 18 9 24 19 7 4
-6 10 -8 15 -5 11 7 -2 55 -15 54 -5 -1 -9 -5 -7 -10 1 -5 -2 -9 -8 -9 -5 0
-10 5 -10 11 0 17 -28 40 -35 29z"/>
<path d="M2050 1091 c0 -16 6 -21 28 -21 34 0 70 -24 82 -55 9 -24 48 -35 130
-35 25 0 72 -7 105 -16 83 -21 114 -24 155 -13 19 4 53 11 75 15 44 6 52 11
42 21 -4 3 -24 1 -46 -5 -21 -7 -60 -12 -86 -12 -47 0 -70 5 -165 38 -25 9
-58 16 -75 16 -25 1 -31 6 -33 29 -3 20 1 27 14 27 10 0 15 2 13 5 -3 2 -54 7
-114 11 -61 3 -113 8 -117 11 -5 2 -8 -5 -8 -16z"/>
<path d="M2930 978 c-14 -22 -40 -59 -57 -80 -18 -22 -33 -46 -33 -54 0 -30
31 -11 67 42 21 31 43 61 48 67 12 14 17 67 7 67 -4 0 -18 -19 -32 -42z"/>
<path d="M1790 992 c0 -19 86 -145 133 -195 l39 -42 -39 55 c-21 30 -37 55
-36 55 1 0 0 10 -3 22 -4 13 -9 21 -13 19 -3 -2 -15 6 -26 17 l-20 20 22 -6
c33 -8 35 5 8 39 -21 24 -26 27 -35 14 -9 -13 -11 -13 -20 0 -7 11 -10 12 -10
2z"/>
<path d="M3966 932 c-3 -5 1 -9 9 -9 8 0 12 4 9 9 -3 4 -7 8 -9 8 -2 0 -6 -4
-9 -8z"/>
<path d="M3827 849 c7 -7 15 -10 18 -7 3 3 -2 9 -12 12 -14 6 -15 5 -6 -5z"/>
<path d="M3885 850 c3 -5 8 -10 11 -10 2 0 4 5 4 10 0 6 -5 10 -11 10 -5 0 -7
-4 -4 -10z"/>
<path d="M3814 825 c22 -17 40 -20 32 -6 -3 5 -16 11 -28 14 -22 6 -22 5 -4
-8z"/>
<path d="M3800 806 c0 -3 9 -10 20 -16 11 -6 20 -8 20 -6 0 3 -9 10 -20 16
-11 6 -20 8 -20 6z"/>
<path d="M3785 780 c3 -5 11 -10 16 -10 6 0 7 5 4 10 -3 6 -11 10 -16 10 -6 0
-7 -4 -4 -10z"/>
<path d="M3820 760 c0 -5 5 -10 11 -10 5 0 7 5 4 10 -3 6 -8 10 -11 10 -2 0
-4 -4 -4 -10z"/>
<path d="M2681 751 l-33 -6 21 -19 c16 -15 24 -17 33 -8 7 7 21 12 31 12 16 0
17 3 7 15 -7 8 -15 14 -19 14 -3 -1 -21 -4 -40 -8z"/>
<path d="M3980 750 c0 -5 5 -10 11 -10 5 0 7 5 4 10 -3 6 -8 10 -11 10 -2 0
-4 -4 -4 -10z"/>
<path d="M3938 743 c7 -3 16 -2 19 1 4 3 -2 6 -13 5 -11 0 -14 -3 -6 -6z"/>
<path d="M3975 711 c3 -6 -3 -14 -12 -20 -15 -9 -13 -10 12 -11 39 0 72 19 35
21 -23 0 -23 1 -5 9 18 8 17 9 -8 9 -16 1 -26 -3 -22 -8z"/>
<path d="M3928 653 c7 -3 16 -2 19 1 4 3 -2 6 -13 5 -11 0 -14 -3 -6 -6z"/>
<path d="M3968 653 c7 -3 16 -2 19 1 4 3 -2 6 -13 5 -11 0 -14 -3 -6 -6z"/>
<path d="M3960 631 c-18 -5 -8 -8 33 -8 36 0 53 3 45 8 -15 10 -43 10 -78 0z"/>
<path d="M3558 583 c6 -2 18 -2 25 0 6 3 1 5 -13 5 -14 0 -19 -2 -12 -5z"/>
<path d="M3906 569 c7 -11 91 -12 98 0 3 4 -19 9 -49 9 -31 0 -53 -4 -49 -9z"/>
<path d="M3640 530 c8 -5 20 -10 25 -10 6 0 3 5 -5 10 -8 5 -19 10 -25 10 -5
0 -3 -5 5 -10z"/>
<path d="M3595 510 c3 -5 14 -10 23 -10 15 0 15 2 2 10 -20 13 -33 13 -25 0z"/>
<path d="M3580 481 c0 -5 12 -11 28 -13 15 -3 36 -9 47 -13 18 -7 18 -6 5 7
-17 17 -80 32 -80 19z"/>
<path d="M3898 483 c7 -3 16 -2 19 1 4 3 -2 6 -13 5 -11 0 -14 -3 -6 -6z"/>
<path d="M3818 463 c6 -2 18 -2 25 0 6 3 1 5 -13 5 -14 0 -19 -2 -12 -5z"/>
<path d="M2185 450 c-3 -5 -1 -10 4 -10 6 0 11 5 11 10 0 6 -2 10 -4 10 -3 0
-8 -4 -11 -10z"/>
<path d="M4055 450 c27 -12 43 -12 25 0 -8 5 -22 9 -30 9 -10 0 -8 -3 5 -9z"/>
<path d="M3458 443 c7 -3 16 -2 19 1 4 3 -2 6 -13 5 -11 0 -14 -3 -6 -6z"/>
<path d="M3490 440 c0 -5 5 -10 11 -10 5 0 7 5 4 10 -3 6 -8 10 -11 10 -2 0
-4 -4 -4 -10z"/>
<path d="M3630 430 c8 -5 24 -10 35 -10 17 0 17 2 5 10 -8 5 -24 10 -35 10
-17 0 -17 -2 -5 -10z"/>
<path d="M3813 433 c9 -2 23 -2 30 0 6 3 -1 5 -18 5 -16 0 -22 -2 -12 -5z"/>
<path d="M3411 426 c13 -10 99 -33 99 -26 0 5 -17 14 -37 19 -37 11 -70 14
-62 7z"/>
<path d="M3528 423 c7 -3 16 -2 19 1 4 3 -2 6 -13 5 -11 0 -14 -3 -6 -6z"/>
<path d="M3718 413 c7 -3 16 -2 19 1 4 3 -2 6 -13 5 -11 0 -14 -3 -6 -6z"/>
<path d="M3775 409 c-4 -5 2 -9 12 -9 10 0 36 -3 58 -6 27 -3 35 -2 25 4 -23
14 -89 22 -95 11z"/>
<path d="M3610 401 c8 -5 31 -12 50 -15 35 -7 35 -7 10 8 -14 9 -36 15 -50 15
-19 0 -21 -2 -10 -8z"/>
<path d="M3536 391 c8 -8 113 -41 130 -41 22 0 -17 20 -68 34 -64 18 -76 20
-62 7z"/>
<path d="M3710 371 c12 -9 13 -13 2 -20 -11 -6 -10 -10 3 -15 23 -9 27 -8 20
5 -5 7 5 8 29 4 45 -9 47 1 4 13 -18 6 -42 13 -53 17 -16 6 -17 5 -5 -4z"/>
<path d="M3788 373 c6 -2 18 -2 25 0 6 3 1 5 -13 5 -14 0 -19 -2 -12 -5z"/>
<path d="M3550 351 c0 -5 12 -11 28 -14 15 -3 41 -8 57 -12 18 -3 10 2 -20 15
-56 22 -65 24 -65 11z"/>
<path d="M2207 315 c-7 -17 18 -41 28 -25 3 5 0 17 -8 25 -13 12 -16 12 -20 0z"/>
<path d="M3526 321 c11 -10 105 -34 111 -28 4 5 -89 37 -108 37 -8 0 -9 -3 -3
-9z"/>
<path d="M3313 295 c0 -17 5 -25 17 -25 10 0 46 -9 81 -20 35 -11 70 -19 79
-17 8 2 -25 16 -75 32 -61 20 -82 30 -67 33 13 2 42 -4 64 -13 22 -9 43 -13
46 -10 9 9 -4 16 -59 31 -76 20 -86 18 -86 -11z"/>
<path d="M3705 300 c28 -12 37 -12 30 0 -3 6 -16 10 -28 9 -21 0 -21 -1 -2 -9z"/>
<path d="M3550 286 c0 -2 20 -11 45 -19 53 -19 60 -12 10 9 -34 14 -55 18 -55
10z"/>
<path d="M3665 280 c3 -5 11 -10 16 -10 6 0 7 5 4 10 -3 6 -11 10 -16 10 -6 0
-7 -4 -4 -10z"/>
<path d="M3500 267 c0 -3 20 -12 45 -20 25 -9 45 -12 45 -7 0 4 -12 11 -27 14
-16 4 -36 9 -45 12 -10 3 -18 3 -18 1z"/>
<path d="M3740 260 c0 -6 7 -10 15 -10 8 0 15 2 15 4 0 2 -7 6 -15 10 -8 3
-15 1 -15 -4z"/>
<path d="M3300 251 c0 -6 12 -11 28 -11 15 0 38 -6 52 -13 14 -7 52 -19 85
-27 33 -7 69 -20 80 -28 18 -13 16 -13 -20 -7 -22 3 -53 13 -69 21 -33 16 -66
18 -66 4 0 -5 17 -12 38 -16 20 -4 74 -20 120 -36 89 -31 130 -34 69 -4 -45
21 -48 31 -7 23 37 -8 39 0 4 13 -14 6 -23 13 -21 17 3 5 -16 8 -42 9 -25 0
-61 8 -79 18 -18 9 -51 21 -75 26 -23 5 -54 12 -69 16 -18 4 -28 2 -28 -5z"/>
<path d="M2401 238 c-1 -11 6 -16 18 -15 12 1 17 6 14 15 -4 10 -8 11 -13 2
-6 -9 -9 -9 -13 1 -4 10 -6 9 -6 -3z"/>
<path d="M2640 230 c0 -5 5 -10 10 -10 6 0 10 5 10 10 0 6 -4 10 -10 10 -5 0
-10 -4 -10 -10z"/>
<path d="M3295 220 c-2 -4 9 -10 26 -14 38 -7 54 -8 47 -1 -11 11 -68 23 -73
15z"/>
<path d="M3650 219 c0 -5 9 -9 20 -9 11 0 20 2 20 4 0 2 -9 6 -20 9 -11 3 -20
1 -20 -4z"/>
<path d="M2415 200 c3 -5 8 -10 11 -10 2 0 4 5 4 10 0 6 -5 10 -11 10 -5 0 -7
-4 -4 -10z"/>
<path d="M2440 191 c0 -5 9 -7 20 -4 11 3 20 7 20 9 0 2 -9 4 -20 4 -11 0 -20
-4 -20 -9z"/>
<path d="M3620 190 c0 -5 5 -10 11 -10 5 0 7 5 4 10 -3 6 -8 10 -11 10 -2 0
-4 -4 -4 -10z"/>
<path d="M3740 190 c0 -5 5 -10 10 -10 6 0 10 5 10 10 0 6 -4 10 -10 10 -5 0
-10 -4 -10 -10z"/>
<path d="M2415 170 c3 -5 11 -10 16 -10 6 0 7 5 4 10 -3 6 -11 10 -16 10 -6 0
-7 -4 -4 -10z"/>
<path d="M3690 166 c0 -2 9 -6 20 -9 11 -3 18 -1 14 4 -5 9 -34 13 -34 5z"/>
<path d="M3270 153 c0 -5 37 -17 83 -28 45 -10 90 -22 100 -27 10 -5 28 -8 40
-5 26 4 23 6 -80 36 -91 28 -143 36 -143 24z"/>
<path d="M3800 150 c8 -5 20 -10 25 -10 6 0 3 5 -5 10 -8 5 -19 10 -25 10 -5
0 -3 -5 5 -10z"/>
<path d="M4310 151 c0 -6 5 -13 10 -16 6 -3 10 1 10 9 0 9 -4 16 -10 16 -5 0
-10 -4 -10 -9z"/>
<path d="M2431 124 c0 -11 3 -14 6 -6 3 7 2 16 -1 19 -3 4 -6 -2 -5 -13z"/>
<path d="M4249 112 c-3 -20 -2 -29 4 -23 5 5 7 19 5 32 -3 20 -5 19 -9 -9z"/>
<path d="M3250 109 c-7 -11 -10 -22 -8 -22 2 -1 60 -17 129 -34 70 -18 135
-36 145 -39 14 -5 16 -4 8 5 -10 11 -109 42 -208 65 -27 6 -51 17 -53 23 -3 9
10 8 49 -4 102 -31 188 -50 188 -42 0 5 -26 16 -57 25 -32 9 -80 22 -107 30
-65 18 -73 18 -86 -7z"/>
<path d="M4311 104 c0 -11 3 -14 6 -6 3 7 2 16 -1 19 -3 4 -6 -2 -5 -13z"/>
<path d="M4270 80 c0 -5 5 -10 10 -10 6 0 10 5 10 10 0 6 -4 10 -10 10 -5 0
-10 -4 -10 -10z"/>
<path d="M3216 48 c-9 -34 -8 -35 22 -35 15 0 52 -2 82 -6 55 -7 36 3 -32 18
-16 3 -28 10 -28 16 0 6 9 8 21 4 12 -4 27 -8 33 -10 12 -2 38 -11 74 -26 13
-5 42 -9 65 -8 23 0 38 2 32 4 -5 1 -39 10 -75 20 -36 9 -76 21 -90 25 -14 5
-41 11 -61 14 -32 6 -37 4 -43 -16z"/>
<path d="M3540 41 c0 -6 3 -12 8 -12 44 -7 64 -7 56 1 -15 15 -64 23 -64 11z"/>
<path d="M3558 3 c6 -2 18 -2 25 0 6 3 1 5 -13 5 -14 0 -19 -2 -12 -5z"/>
<path d="M3688 3 c7 -3 16 -2 19 1 4 3 -2 6 -13 5 -11 0 -14 -3 -6 -6z"/>
</g>
</svg>
